<?xml version="1.0" encoding="UTF-8" standalone="no"?>
<!-- Created with Inkscape (http://www.inkscape.org/) -->

<svg
   xmlns:dc="http://purl.org/dc/elements/1.1/"
   xmlns:cc="http://creativecommons.org/ns#"
   xmlns:rdf="http://www.w3.org/1999/02/22-rdf-syntax-ns#"
   xmlns:svg="http://www.w3.org/2000/svg"
   xmlns="http://www.w3.org/2000/svg"
   xmlns:sodipodi="http://sodipodi.sourceforge.net/DTD/sodipodi-0.dtd"
   xmlns:inkscape="http://www.inkscape.org/namespaces/inkscape"
   width="210mm"
   height="210mm"
   viewBox="0 0 210 210"
   version="1.1"
   id="svg8"
   inkscape:version="0.92.3 (2405546, 2018-03-11)"
   sodipodi:docname="Sniper Rifle Icon.svg">
  <defs
     id="defs2" />
  <sodipodi:namedview
     id="base"
     pagecolor="#ffffff"
     bordercolor="#666666"
     borderopacity="1.0"
     inkscape:pageopacity="0.0"
     inkscape:pageshadow="2"
     inkscape:zoom="0.98994949"
     inkscape:cx="146.52611"
     inkscape:cy="404.64254"
     inkscape:document-units="mm"
     inkscape:current-layer="layer1"
     showgrid="false"
     inkscape:window-width="1920"
     inkscape:window-height="1046"
     inkscape:window-x="-11"
     inkscape:window-y="-11"
     inkscape:window-maximized="1" />
  <metadata
     id="metadata5">
    <rdf:RDF>
      <cc:Work
         rdf:about="">
        <dc:format>image/svg+xml</dc:format>
        <dc:type
           rdf:resource="http://purl.org/dc/dcmitype/StillImage" />
        <dc:title />
      </cc:Work>
    </rdf:RDF>
  </metadata>
  <g
     inkscape:label="Layer 1"
     inkscape:groupmode="layer"
     id="layer1"
     transform="translate(0,-87)">
    <path
       style="fill:#0000fa;fill-opacity:0.4039409;stroke:none;stroke-width:0.27971593px;stroke-linecap:butt;stroke-linejoin:miter;stroke-opacity:1"
       d="m 65.482812,162.12395 -0.0036,7.52657 h 11.950101 v 5.77287 l -19.667791,0.0557 c -0.268433,1.93581 -0.312903,4.2548 -0.696582,5.47433 -4.255829,-0.5075 -41.321774,-4.11915 -46.1241,-4.66837 -0.253217,3.20561 -0.09139,20.85618 -0.252334,23.63208 4.820997,-0.16509 42.968545,-7.28844 45.52861,-7.22725 -4.297461,8.6223 -11.786613,23.67064 -13.984958,29.07284 l 13.414344,0.11333 c 0,0 7.190061,-17.62927 10.060956,-19.50193 1.982793,-1.29338 2.656777,0.52757 11.926801,0.52757 7.361596,0 8.667729,-1.33074 10.349224,-9.4631 11.970491,0 24.152157,-0.074 26.416027,-0.0501 l 0.34157,-6.30439 74.53669,-0.0387 0.0466,1.12702 9.94092,-0.009 0.0462,-8.54656 -9.98672,-0.0103 -0.0394,1.09976 c 0,0 -72.76178,0.50053 -74.09442,0.46557 0.0541,-1.17909 -0.12188,-3.65182 -0.0201,-5.85382 l -17.018486,0.0478 v -5.71482 h 12.513596 v -7.52657 z m 13.660755,7.46615 h 17.318601 v 5.8242 H 79.143567 Z m 5.51382,24.18729 c 0.331371,6.46392 -0.654873,8.19837 -6.887634,8.20616 -2.999216,0.004 -5.699726,0.17424 -7.47681,-1.73395 -1.366769,-1.46761 -1.042504,-5.91148 -1.042504,-5.91148 l 1.878481,-0.54375 c 0,0 -0.612694,2.88447 0.03159,4.09735 1.405471,2.64588 3.636129,3.05881 3.636129,3.05881 l 0.0075,-0.58483 c 0,0 -2.230359,-0.90256 -2.681684,-2.58692 -0.386035,-1.44069 1.095417,-3.98441 1.095417,-3.98441 z"
       id="path3724"
       inkscape:connector-curvature="0" />
  </g>
</svg>
