<?xml version="1.0" encoding="UTF-8" standalone="no"?>
<!-- Created with Inkscape (http://www.inkscape.org/) -->

<svg
   xmlns:dc="http://purl.org/dc/elements/1.1/"
   xmlns:cc="http://creativecommons.org/ns#"
   xmlns:rdf="http://www.w3.org/1999/02/22-rdf-syntax-ns#"
   xmlns:svg="http://www.w3.org/2000/svg"
   xmlns="http://www.w3.org/2000/svg"
   xmlns:sodipodi="http://sodipodi.sourceforge.net/DTD/sodipodi-0.dtd"
   xmlns:inkscape="http://www.inkscape.org/namespaces/inkscape"
   width="210mm"
   height="210mm"
   viewBox="0 0 210 210"
   version="1.1"
   id="svg8"
   inkscape:version="0.92.3 (2405546, 2018-03-11)"
   sodipodi:docname="Shotgun Icon.svg">
  <defs
     id="defs2" />
  <sodipodi:namedview
     id="base"
     pagecolor="#ffffff"
     bordercolor="#666666"
     borderopacity="1.0"
     inkscape:pageopacity="0.0"
     inkscape:pageshadow="2"
     inkscape:zoom="0.98994949"
     inkscape:cx="191.34574"
     inkscape:cy="393.80601"
     inkscape:document-units="mm"
     inkscape:current-layer="layer1"
     showgrid="false"
     inkscape:window-width="1920"
     inkscape:window-height="1046"
     inkscape:window-x="-11"
     inkscape:window-y="-11"
     inkscape:window-maximized="1" />
  <metadata
     id="metadata5">
    <rdf:RDF>
      <cc:Work
         rdf:about="">
        <dc:format>image/svg+xml</dc:format>
        <dc:type
           rdf:resource="http://purl.org/dc/dcmitype/StillImage" />
        <dc:title />
      </cc:Work>
    </rdf:RDF>
  </metadata>
  <g
     inkscape:label="Layer 1"
     inkscape:groupmode="layer"
     id="layer1"
     transform="translate(0,-87)">
    <path
       style="fill:#0000fa;fill-opacity:0.4039409;stroke:none;stroke-width:0.2331773px;stroke-linecap:butt;stroke-linejoin:miter;stroke-opacity:1"
       d="m 28.873882,173.83106 -9.791402,7.37715 2.933292,9.25246 -8.289141,20.36966 11.182485,0.0945 c 0,0 5.993579,-14.69631 8.386819,-16.25741 1.6529,-1.07818 2.214774,0.43997 9.94247,0.43997 6.136787,0 7.225871,-1.10949 8.627603,-7.88881 l 55.121072,-0.28516 0.0948,2.51174 51.49827,-0.19016 0.18781,-2.58946 17.91015,-3.7e-4 -0.11499,-7.57774 19.52126,0.0997 0.18899,-6.11196 z m 7.375777,14.13767 1.565728,-0.45353 c 0,0 -0.51077,2.40462 0.02632,3.41571 1.171631,2.20566 3.031433,2.54993 3.031433,2.54993 l 0.0061,-0.48746 c 0,0 -1.859255,-0.75238 -2.23549,-2.1565 -0.321806,-1.201 0.913084,-3.32168 0.913084,-3.32168 l 9.536213,-0.0142 c 0.276238,5.38847 -0.545925,6.8345 -5.741691,6.841 -2.500212,0.003 -4.751323,0.14525 -6.23274,-1.44546 -1.139368,-1.22343 -0.868957,-4.92781 -0.868957,-4.92781 z"
       id="path3724"
       inkscape:connector-curvature="0"
       sodipodi:nodetypes="cccccssccccccccccccsccsccssc" />
  </g>
</svg>
